HIERARCHY
ROOT Hips
{
	OFFSET -0.001795 -0.223333 0.028219
	CHANNELS 6 Xposition Yposition Zposition Zrotation Yrotation Xrotation 
	JOINT LeftUpLeg
	{
		OFFSET 0.069520 -0.091406 -0.006815
		CHANNELS 3 Zrotation Yrotation Xrotation
		JOINT LeftLeg
		{
			OFFSET 0.034277 -0.375199 -0.004496
			CHANNELS 3 Zrotation Yrotation Xrotation
			JOINT LeftFoot
			{
				OFFSET -0.013596 -0.397961 -0.043693
				CHANNELS 3 Zrotation Yrotation Xrotation
				JOINT LeftToe
				{
					OFFSET 0.026358 -0.055791 0.119288
					CHANNELS 3 Zrotation Yrotation Xrotation
					End Site
					{
						OFFSET 0.000000 0.000000 0.000000
					}
				}
			}
		}
	}
	JOINT RightUpLeg
	{
		OFFSET -0.067670 -0.090522 -0.004320
		CHANNELS 3 Zrotation Yrotation Xrotation
		JOINT RightLeg
		{
			OFFSET -0.038290 -0.382569 -0.008850
			CHANNELS 3 Zrotation Yrotation Xrotation
			JOINT RightFoot
			{
				OFFSET 0.015774 -0.398415 -0.042312
				CHANNELS 3 Zrotation Yrotation Xrotation
				JOINT RightToe
				{
					OFFSET -0.025372 -0.048144 0.123348
					CHANNELS 3 Zrotation Yrotation Xrotation
					End Site
					{
						OFFSET 0.000000 0.000000 0.000000
					}
				}
			}
		}
	}
	JOINT Spine
	{
		OFFSET -0.002533 0.108963 -0.026696
		CHANNELS 3 Zrotation Yrotation Xrotation
		JOINT Spine1
		{
			OFFSET 0.005487 0.135180 0.001092
			CHANNELS 3 Zrotation Yrotation Xrotation
			JOINT Spine2
			{
				OFFSET 0.001457 0.052922 0.025425
				CHANNELS 3 Zrotation Yrotation Xrotation
				JOINT Neck
				{
					OFFSET -0.002778 0.213870 -0.042857
					CHANNELS 3 Zrotation Yrotation Xrotation
					JOINT Head
					{
						OFFSET 0.005152 0.064970 0.051349
						CHANNELS 3 Zrotation Yrotation Xrotation
						End Site
						{
							OFFSET 0.000000 0.000000 0.000000
						}
					}
				}
				JOINT LeftShoulder
				{
					OFFSET 0.078845 0.121749 -0.034090
					CHANNELS 3 Zrotation Yrotation Xrotation
					JOINT LeftArm
					{
						OFFSET 0.090977 0.030469 -0.008868
						CHANNELS 3 Zrotation Yrotation Xrotation
						JOINT LeftForeArm
						{
							OFFSET 0.259612 -0.012772 -0.027456
							CHANNELS 3 Zrotation Yrotation Xrotation
							JOINT LeftHand
							{
								OFFSET 0.249234 0.008986 -0.001171
								CHANNELS 3 Zrotation Yrotation Xrotation
								End Site
								{
									OFFSET 0.000000 0.000000 0.000000
								}
							}
						}
					}
				}
				JOINT RightShoulder
				{
					OFFSET -0.081759 0.118833 -0.038615
					CHANNELS 3 Zrotation Yrotation Xrotation
					JOINT RightArm
					{
						OFFSET -0.096012 0.032551 -0.009143
						CHANNELS 3 Zrotation Yrotation Xrotation
						JOINT RightForeArm
						{
							OFFSET -0.253742 -0.013329 -0.021401
							CHANNELS 3 Zrotation Yrotation Xrotation
							JOINT RightHand
							{
								OFFSET -0.255298 0.007772 -0.005559
								CHANNELS 3 Zrotation Yrotation Xrotation
								End Site
								{
									OFFSET 0.000000 0.000000 0.000000
								}
							}
						}
					}
				}
			}
		}
	}
}
MOTION
Frames: 17
Frame Time: 0.050000
0.021814 0.948819 0.136859 -1.902180 -3.792530 3.259734 1.417970 -0.692758 -8.792496 -4.803807 0.852680 16.407931 10.143192 20.503005 9.403861 0.000000 0.000000 0.000000 0.152975 0.891062 -8.720762 1.933423 0.345941 17.094986 -5.570925 -15.625153 10.926532 0.000000 0.000000 0.000000 -3.172529 -0.066501 12.739308 5.335911 -0.890864 -21.925358 0.362417 3.494212 27.509879 0.211181 1.645521 -25.470559 0.000000 0.000000 0.000000 -15.910753 -9.546972 3.907385 -12.877452 -38.092478 -0.531700 119.826066 -50.845762 -73.955801 0.000000 0.000000 0.000000 1.078988 16.841255 5.959348 11.472076 32.828412 -0.559576 -105.392012 44.869252 -51.475904 0.000000 0.000000 0.000000 
0.023034 0.953596 0.137469 -1.783214 -3.516340 4.124286 1.162461 -0.752741 -9.321659 -4.314332 0.685049 15.141228 9.694758 19.745259 11.686912 0.000000 0.000000 0.000000 0.114112 0.892181 -8.753014 1.614574 0.338796 15.175587 -5.545796 -15.814704 12.860221 0.000000 0.000000 0.000000 -3.092025 -0.071373 12.536475 5.327760 -0.866951 -22.013004 0.473742 3.942833 27.266864 -0.020519 1.926384 -26.272927 0.000000 0.000000 0.000000 -15.540296 -9.620708 3.789396 -12.207619 -37.650928 -0.673458 119.691195 -50.677791 -73.907443 0.000000 0.000000 0.000000 -0.072284 17.325350 5.991066 9.601213 32.757658 -0.828598 -100.480919 43.072271 -45.555983 0.000000 0.000000 0.000000 
0.024202 0.957701 0.138708 -1.511210 -3.252293 4.699822 0.667445 -0.791295 -9.356440 -3.840364 0.534272 13.591712 9.461352 19.380563 13.905187 0.000000 0.000000 0.000000 0.140281 0.877374 -8.614511 0.900813 0.423441 13.485304 -5.615677 -16.151437 14.885641 0.000000 0.000000 0.000000 -3.199332 -0.052812 12.420226 5.292566 -0.845595 -22.020799 0.659936 3.986045 26.916591 -0.247932 2.106051 -26.642730 0.000000 0.000000 0.000000 -14.713206 -9.280060 3.546326 -11.700260 -37.351097 -0.765070 119.671567 -49.655796 -72.757093 0.000000 0.000000 0.000000 -1.490465 17.366744 5.803576 8.080201 33.616550 -1.050780 -96.520639 40.824678 -40.329263 0.000000 0.000000 0.000000 
0.025010 0.960631 0.140837 -1.327118 -3.173570 4.934926 0.144504 -0.780747 -8.820202 -3.088232 0.345402 11.985678 9.128707 18.895669 15.582910 0.000000 0.000000 0.000000 0.172067 0.788648 -7.770505 0.215654 0.473993 11.470285 -5.366862 -15.875369 16.190670 0.000000 0.000000 0.000000 -3.220985 -0.045562 12.111797 5.186847 -0.789562 -22.352778 0.757046 4.237011 26.900120 -0.076694 2.096278 -27.476937 0.000000 0.000000 0.000000 -13.751189 -8.913035 3.295548 -11.750666 -37.632324 -0.749161 119.203232 -48.614580 -71.062105 0.000000 0.000000 0.000000 -2.439630 17.058647 5.561666 7.409959 34.263365 -1.143297 -93.989257 38.685825 -36.396922 0.000000 0.000000 0.000000 
0.025202 0.962784 0.143350 -1.181716 -2.783861 5.047241 -0.137692 -0.717848 -7.901116 -2.556943 0.221086 10.338855 8.373667 17.848431 15.991545 0.000000 0.000000 0.000000 0.321426 0.692224 -6.823140 -0.349443 0.482205 9.534957 -5.502051 -16.196120 17.634767 0.000000 0.000000 0.000000 -3.326357 -0.034162 11.967496 5.256656 -0.785801 -22.543171 0.851027 4.388178 26.957047 0.093144 2.095175 -28.108478 0.000000 0.000000 0.000000 -13.766413 -8.611708 3.069032 -11.680722 -37.947533 -0.756623 119.798018 -48.128260 -71.215889 0.000000 0.000000 0.000000 -2.523840 16.657861 5.425783 7.621288 35.045240 -1.083436 -93.581183 37.405197 -34.583681 0.000000 0.000000 0.000000 
0.024937 0.964318 0.145636 -1.231536 -2.637530 5.119403 -0.146452 -0.668203 -7.337116 -2.237100 0.158584 9.383984 7.992491 17.329541 16.454375 0.000000 0.000000 0.000000 0.591329 0.609736 -6.003575 -0.962153 0.511458 8.038971 -5.105811 -15.646349 18.560412 0.000000 0.000000 0.000000 -3.534613 -0.007173 11.792790 5.480790 -0.852220 -22.354146 0.862285 4.608741 26.739199 -0.088791 2.281600 -28.820184 0.000000 0.000000 0.000000 -13.428290 -8.286742 2.843497 -11.355149 -38.217762 -0.807538 119.892624 -48.061730 -71.397647 0.000000 0.000000 0.000000 -2.106405 16.712461 5.515441 7.748069 34.798119 -1.038093 -94.118757 37.130284 -34.477748 0.000000 0.000000 0.000000 
0.024441 0.965129 0.147569 -1.359432 -2.884338 5.256068 -0.053878 -0.660530 -7.304797 -2.014135 0.119806 9.323351 7.835884 17.091786 16.780571 0.000000 0.000000 0.000000 0.730809 0.573737 -5.660910 -1.126343 0.496387 7.235317 -4.734568 -15.155830 19.018694 0.000000 0.000000 0.000000 -3.656122 0.013692 11.531574 5.446202 -0.833441 -22.531318 1.151321 4.821969 26.991076 -0.009623 2.261399 -29.096882 0.000000 0.000000 0.000000 -13.412363 -7.817209 2.613918 -10.784827 -38.355728 -0.944469 120.068210 -48.000396 -71.565102 0.000000 0.000000 0.000000 -1.749326 16.561106 5.521998 8.472506 34.474829 -0.912154 -95.045353 37.589873 -35.412469 0.000000 0.000000 0.000000 
0.024179 0.965271 0.149739 -1.430082 -2.942057 5.457876 -0.016722 -0.668854 -7.423369 -1.926058 0.103210 9.365854 7.872834 17.144128 16.950807 0.000000 0.000000 0.000000 0.842461 0.601575 -5.907781 -1.191122 0.516322 7.393769 -4.754272 -15.243491 19.388906 0.000000 0.000000 0.000000 -3.660971 0.017902 11.288581 5.387328 -0.813469 -22.567449 1.278300 4.798082 26.947095 -0.094570 2.309700 -29.422013 0.000000 0.000000 0.000000 -13.205741 -7.327171 2.392663 -10.311532 -37.960859 -1.049443 119.789543 -47.858054 -71.147294 0.000000 0.000000 0.000000 -0.582197 16.261905 5.608332 8.890907 33.701158 -0.874821 -97.569534 38.764919 -38.214623 0.000000 0.000000 0.000000 
0.024220 0.964592 0.152760 -1.508373 -3.318015 5.296702 -0.007276 -0.644040 -7.150618 -1.821830 0.088349 9.517171 8.013714 17.311385 17.160782 0.000000 0.000000 0.000000 0.851385 0.569562 -5.621339 -1.284121 0.532877 7.375469 -4.466488 -14.858117 19.418684 0.000000 0.000000 0.000000 -3.616679 0.015534 10.980493 5.389429 -0.822368 -22.577393 1.327269 4.759918 27.172878 0.002102 2.210013 -29.351626 0.000000 0.000000 0.000000 -13.157991 -6.699043 2.152246 -9.537425 -37.475308 -1.222754 119.815794 -48.176443 -71.603948 0.000000 0.000000 0.000000 0.312398 15.735302 5.549894 10.012262 32.820315 -0.732122 -101.340615 40.211332 -42.363388 0.000000 0.000000 0.000000 
0.024658 0.963884 0.156620 -1.495782 -3.669351 5.157850 -0.249275 -0.601398 -6.552676 -1.428945 0.021675 9.048177 8.070675 17.366953 17.591674 0.000000 0.000000 0.000000 0.744609 0.536236 -5.331182 -1.489817 0.571623 7.422989 -4.025286 -14.226952 19.409000 0.000000 0.000000 0.000000 -3.495615 0.004968 10.485199 5.272387 -0.771452 -22.969683 1.323120 4.493505 27.644051 0.233451 1.990953 -29.136403 0.000000 0.000000 0.000000 -12.819684 -5.956713 1.909776 -9.549049 -36.696184 -1.242969 120.098750 -48.578090 -72.302547 0.000000 0.000000 0.000000 1.008339 14.963922 5.356054 11.629061 32.167504 -0.536900 -106.199179 41.803118 -47.827682 0.000000 0.000000 0.000000 
0.025297 0.963255 0.160964 -1.441732 -4.178036 5.000965 -0.539187 -0.567345 -6.049440 -1.244326 -0.003446 8.831503 8.461301 17.872013 18.155188 0.000000 0.000000 0.000000 0.569920 0.523491 -5.233532 -1.522672 0.610125 7.906010 -3.828667 -13.974871 19.238707 0.000000 0.000000 0.000000 -3.299340 -0.010465 9.702206 5.271634 -0.755018 -23.313544 1.212427 4.363259 28.106554 0.391234 1.818785 -28.947039 0.000000 0.000000 0.000000 -12.112185 -5.088607 1.607108 -9.472546 -35.797799 -1.274681 119.519064 -48.934117 -72.072557 0.000000 0.000000 0.000000 1.119787 13.847825 4.954999 13.090592 31.853216 -0.359919 -109.830158 43.047142 -52.315086 0.000000 0.000000 0.000000 
0.025979 0.963354 0.164910 -1.298688 -4.551958 4.753508 -0.948244 -0.499878 -5.175478 -0.822036 -0.066883 7.984047 8.480343 17.871409 19.061591 0.000000 0.000000 0.000000 0.158219 0.506921 -5.100039 -1.488317 0.630240 8.276888 -3.378241 -13.418838 19.762618 0.000000 0.000000 0.000000 -3.087927 -0.026851 8.889599 5.302865 -0.760977 -23.442589 0.944724 4.057672 28.190787 0.403266 1.693820 -28.432833 0.000000 0.000000 0.000000 -11.373665 -4.259603 1.327201 -9.050728 -35.017032 -1.340539 118.700952 -49.189085 -71.453290 0.000000 0.000000 0.000000 0.927806 12.773799 4.532389 14.049741 31.781666 -0.234431 -112.511393 43.830026 -55.795390 0.000000 0.000000 0.000000 
0.026624 0.964071 0.167788 -1.278235 -4.886420 4.637046 -1.123880 -0.447903 -4.580620 -0.722018 -0.069286 7.275418 8.755414 18.218406 20.020115 0.000000 0.000000 0.000000 0.018262 0.545154 -5.481409 -1.332969 0.653680 9.027254 -3.565815 -13.943308 20.886403 0.000000 0.000000 0.000000 -2.804698 -0.049586 8.326926 5.367708 -0.742806 -23.935197 0.648575 3.922386 28.465125 0.441737 1.607986 -28.349597 0.000000 0.000000 0.000000 -9.877796 -3.696589 1.160578 -8.634119 -34.324592 -1.403864 116.704724 -48.786835 -68.870962 0.000000 0.000000 0.000000 0.468189 11.840772 4.150692 14.383815 31.866563 -0.198014 -114.237999 43.969081 -57.676427 0.000000 0.000000 0.000000 
0.027155 0.965096 0.169439 -1.118917 -5.214179 4.530787 -1.501121 -0.435427 -4.349438 -0.702108 -0.066906 7.137831 9.262381 18.861169 20.760992 0.000000 0.000000 0.000000 -0.365638 0.561707 -5.676216 -1.115962 0.651903 9.564519 -3.390578 -13.799858 21.303916 0.000000 0.000000 0.000000 -2.653460 -0.056657 7.781303 5.289885 -0.714406 -24.133931 0.532066 3.918249 28.474711 0.278712 1.656760 -28.208486 0.000000 0.000000 0.000000 -8.895257 -3.227070 1.001485 -8.081725 -33.862371 -1.479607 115.224311 -48.518937 -67.068096 0.000000 0.000000 0.000000 0.061375 11.291922 3.919657 14.291808 31.959934 -0.210867 -114.648796 43.652927 -57.792284 0.000000 0.000000 0.000000 
0.027417 0.965899 0.170230 -1.076590 -5.419591 4.367373 -1.506404 -0.421458 -4.198998 -0.800413 -0.044353 6.992264 9.448637 19.073599 21.867807 0.000000 0.000000 0.000000 -0.538881 0.600747 -6.086706 -0.834438 0.645112 10.244742 -3.677190 -14.436268 22.476528 0.000000 0.000000 0.000000 -2.564632 -0.063778 7.671882 5.495297 -0.758201 -24.228127 0.412216 3.983115 28.356281 0.165194 1.701524 -28.001098 0.000000 0.000000 0.000000 -8.399804 -3.088116 0.956293 -7.488203 -33.593190 -1.557795 113.106830 -47.582423 -63.947014 0.000000 0.000000 0.000000 -0.156556 10.887385 3.761465 13.813090 32.165645 -0.271721 -114.722586 43.406234 -57.648531 0.000000 0.000000 0.000000 
0.027556 0.966436 0.170719 -1.088272 -5.560517 4.396972 -1.502913 -0.434100 -4.320792 -0.931660 -0.021332 7.164574 9.707082 19.387870 22.195669 0.000000 0.000000 0.000000 -0.570704 0.645374 -6.539841 -0.682618 0.639598 10.586586 -4.029104 -15.138323 23.715946 0.000000 0.000000 0.000000 -2.410373 -0.072699 7.337980 5.620505 -0.789094 -24.221379 0.190465 3.810941 28.208056 0.376531 1.529182 -27.795583 0.000000 0.000000 0.000000 -7.987750 -2.842714 0.883557 -7.188178 -33.310530 -1.583594 111.231385 -46.840413 -61.238459 0.000000 0.000000 0.000000 -0.218514 10.872016 3.747414 13.545445 32.336209 -0.306848 -114.739150 43.430943 -57.883834 0.000000 0.000000 0.000000 
0.027564 0.966385 0.171108 -1.113627 -5.773513 4.338937 -1.319488 -0.445556 -4.472452 -1.170275 0.020771 7.551151 9.705419 19.355952 22.481442 0.000000 0.000000 0.000000 -0.627939 0.662802 -6.723965 -0.555130 0.635958 10.874112 -4.070278 -15.279094 24.080537 0.000000 0.000000 0.000000 -2.381396 -0.072394 7.162329 5.680544 -0.802183 -24.272760 0.358467 3.836021 28.170936 0.534709 1.403939 -27.463406 0.000000 0.000000 0.000000 -8.039600 -2.714292 0.839730 -6.943473 -33.024299 -1.614759 110.489113 -46.650155 -60.330832 0.000000 0.000000 0.000000 -0.277662 10.638208 3.661423 13.408709 32.512444 -0.326534 -114.505260 43.899259 -58.368122 0.000000 0.000000 0.000000 
